HIERARCHY
ROOT Hips
{
  OFFSET 3.13124 94.3669 -3.18751
  CHANNELS  6 Xposition Yposition Zposition Zrotation Xrotation Yrotation
  JOINT LeftUpLeg
  {
    OFFSET 8.64259 1.95398 -2.38835
    CHANNELS 3 Zrotation Xrotation Yrotation
    JOINT LeftLeg
    {
      OFFSET 43.7702 0 0
      CHANNELS 3 Zrotation Xrotation Yrotation
      JOINT LeftFoot
      {
        OFFSET 40.6238 0 0
        CHANNELS 3 Zrotation Xrotation Yrotation
        JOINT LeftToeBase
        {
          OFFSET 12.7242 0 0
          CHANNELS 3 Zrotation Xrotation Yrotation
          End Site
          {
            OFFSET 0 0 0
          }
        }
      }
    }
  }
  JOINT RightUpLeg
  {
    OFFSET -8.2249 1.95398 -2.59336
    CHANNELS 3 Zrotation Xrotation Yrotation
    JOINT RightLeg
    {
      OFFSET 43.5653 0 0
      CHANNELS 3 Zrotation Xrotation Yrotation
      JOINT RightFoot
      {
        OFFSET 40.6238 0 0
        CHANNELS 3 Zrotation Xrotation Yrotation
        JOINT RightToeBase
        {
          OFFSET 12.7242 0 0
          CHANNELS 3 Zrotation Xrotation Yrotation
          End Site
          {
            OFFSET 0 0 0
          }
        }
      }
    }
  }
  JOINT Spine
  {
    OFFSET 0.165834 0.87714 6.61349
    CHANNELS 3 Zrotation Xrotation Yrotation
    JOINT Spine1
    {
      OFFSET 7.38962 1.71661e-005 0
      CHANNELS 3 Zrotation Xrotation Yrotation
      JOINT Spine2
      {
        OFFSET 11.9445 1.14441e-005 0
        CHANNELS 3 Zrotation Xrotation Yrotation
        JOINT Spine3
        {
          OFFSET 14.7254 4.19617e-005 0
          CHANNELS 3 Zrotation Xrotation Yrotation
          JOINT Spine4
          {
            OFFSET 10.9679 0 0
            CHANNELS 3 Zrotation Xrotation Yrotation
            JOINT RightShoulder
            {
              OFFSET 2.46616 -1.6653 3.69651
              CHANNELS 3 Zrotation Xrotation Yrotation
              JOINT RightArm
              {
                OFFSET 13.0012 0 0
                CHANNELS 3 Zrotation Xrotation Yrotation
                JOINT RightForeArm
                {
                  OFFSET 28.7848 1.52588e-005 0
                  CHANNELS 3 Zrotation Xrotation Yrotation
                  JOINT RightHand
                  {
                    OFFSET 26.5688 1.52588e-005 0
                    CHANNELS 3 Zrotation Xrotation Yrotation
                    End Site
                    {
                      OFFSET 0 0 0
                    }
                  }
                }
              }
            }
            JOINT LeftShoulder
            {
              OFFSET 2.38034 -1.29275 -3.75231
              CHANNELS 3 Zrotation Xrotation Yrotation
              JOINT LeftArm
              {
                OFFSET 16.3182 6.10352e-005 0
                CHANNELS 3 Zrotation Xrotation Yrotation
                JOINT LeftForeArm
                {
                  OFFSET 27.0901 0 0
                  CHANNELS 3 Zrotation Xrotation Yrotation
                  JOINT LeftHand
                  {
                    OFFSET 24.5451 1.52588e-005 0
                    CHANNELS 3 Zrotation Xrotation Yrotation
                    End Site
                    {
                      OFFSET 0 0 0
                    }
                  }
                }
              }
            }
            JOINT Neck
            {
              OFFSET 5.0226 -0.0266342 0
              CHANNELS 3 Zrotation Xrotation Yrotation
              JOINT Head
              {
                OFFSET 6.69363 2.86102e-005 0
                CHANNELS 3 Zrotation Xrotation Yrotation
                End Site
                {
                  OFFSET 0 0 0
                }
              }
            }
          }
        }
      }
    }
  }
}
MOTION
Frames:	11
Frame Time:	0.0333333
-1.83298 97.8449 -19.5414 29.4326 -89.9987 29.4985 -171.15 3.0966 94.2266 -8.77029 8.8633 0.47237 63.2804 1.90384 1.00586 28.7808 5.85017e-006 9.49327e-006 178.568 1.90796 87.5615 -7.50089 -1.35474 -0.0818677 62.6809 -1.31951 -0.668989 28.7808 1.28587e-005 2.52732e-005 0.00549415 6.3395 -90.0663 14.1949 0.00936527 -0.00627033 2.52399 0.00940173 -0.00639545 -20.0112 0.00468788 0.00399014 0.00148234 0.00469054 0.00397689 100.82 -18.213 -85.5338 6.96764 44.5416 -25.066 -5.96124 0.333802 -3.37235 -5.37983 -0.320002 -0.0162416 -78.9451 -20.6558 94.3577 10.2897 -41.4504 -12.8109 3.07119 42.123 -5.93186 -0.861622 -0.0319375 0.0711683 1.73519 -0.00199139 0.00387416 -7.41058 -0.00248444 -0.00542842 
-1.82988 97.8623 -19.5473 -44.468 -89.972 -44.383 -171.156 3.06524 94.2375 -8.6668 8.82384 0.472438 63.2276 1.91518 1.01388 28.7808 5.85017e-006 9.49327e-006 178.547 1.6163 87.5776 -6.84948 -1.41083 -0.0818697 62.3641 -1.32558 -0.666473 28.7808 1.28587e-005 2.52732e-005 0.0107531 6.32785 -90.0862 14.2182 0.00936527 -0.00627033 2.54727 0.00940173 -0.00639545 -19.9879 0.00468788 0.0040041 0.0247653 0.00469054 0.00399122 100.83 -18.1366 -85.538 6.94651 44.5402 -25.0038 -5.9619 0.333799 -3.38034 -5.37983 -0.320002 -0.0162416 -78.9452 -20.6363 94.3358 10.2865 -41.4426 -12.7773 3.14424 42.2447 -5.96505 -1.08043 -0.0409146 0.0284989 1.45251 -0.032408 0.0633933 -7.42259 -0.0402414 -0.0889241 
-1.83906 97.8632 -19.5474 -30.4623 -89.9538 -30.3717 -171.156 3.05897 94.2484 -8.60963 8.80293 0.471958 63.2196 1.86724 0.986974 28.7808 5.85017e-006 9.49327e-006 178.545 1.53297 87.5888 -6.63122 -1.38076 -0.0819993 62.2526 -1.28938 -0.643435 28.7808 1.28587e-005 2.52732e-005 0.0119427 6.31976 -90.0939 14.2344 0.00895826 -0.00627033 2.56348 0.00897311 -0.00639545 -19.9717 0.00468788 0.00360569 0.0409637 0.00469054 0.00359898 100.863 -18.1191 -85.4394 6.98934 44.5233 -25.1402 -5.92799 0.333789 -3.41013 -5.37983 -0.320002 -0.0162416 -78.9403 -20.6518 94.3615 10.3134 -41.4059 -12.7171 3.11844 41.9813 -6.03 -1.08685 -0.0407272 0.0631743 1.38539 -0.0362006 0.0903495 -7.69764 -0.0442968 -0.122096 
-1.84064 97.8705 -19.5537 -36.4278 -89.8884 -36.3136 -171.16 3.08011 94.2667 -8.5353 8.66276 0.440309 63.1684 1.82295 0.962637 28.7808 5.85017e-006 9.49327e-006 178.517 1.15365 87.6046 -5.71918 -1.52842 -0.0831294 61.7705 -1.3786 -0.688186 28.7808 1.28587e-005 2.52732e-005 0.0112961 6.31716 -90.1168 14.2396 0.00272751 -0.00581769 2.56866 0.0024405 -0.00593756 -19.9665 0.00442719 -0.00509405 0.0461615 0.0044296 -0.00508986 100.888 -18.0867 -85.3935 7.09546 44.5037 -25.357 -5.90946 0.333767 -3.47193 -5.37983 -0.320002 -0.0162416 -78.9297 -20.6472 94.3712 10.3007 -41.453 -12.5795 3.46074 42.412 -6.1854 -1.55678 -0.0609253 -0.208182 1.47093 -0.00261021 0.170422 -8.03684 -0.0187492 -0.141974 
-1.86981 97.8504 -19.5409 -136.237 -89.8731 -136.16 -171.114 3.02187 94.2735 -8.83544 8.76591 0.466113 63.3303 1.88533 0.994211 28.7808 5.85017e-006 9.49327e-006 178.593 1.99017 87.5864 -7.85587 -1.44604 -0.0867416 62.8701 -1.30878 -0.665535 28.7808 1.28587e-005 2.52732e-005 0.00356527 6.34139 -90.0532 14.1911 -0.0012752 -0.000819571 2.52017 -0.00130582 -0.000765818 -20.015 -0.000966023 -0.00116155 -0.00233476 -0.000966416 -0.00116289 100.992 -18.3916 -85.1983 7.28526 44.5988 -25.9323 -5.99846 0.333764 -3.48159 -5.37983 -0.320002 -0.0162416 -78.9735 -20.6306 94.1553 10.5847 -41.4748 -12.0141 3.57015 42.4251 -6.29373 -1.43132 -0.056688 -0.251666 1.5371 -0.0375162 0.00131735 -8.22913 0.0415677 0.0331128 
-1.89899 97.8389 -19.5384 -140.838 -89.7672 -140.763 -171.077 3.02186 94.308 -9.01796 8.60734 0.426389 63.3955 1.83476 0.962587 28.7808 5.85017e-006 9.49327e-006 178.627 2.22415 87.59 -8.51965 -1.62596 -0.0974278 63.1538 -1.45188 -0.754465 28.7808 1.28587e-005 2.52732e-005 -0.0110134 6.35382 -90.0347 14.1663 -0.0324516 -0.0277159 2.49532 -0.0336486 -0.0262647 -20.0398 -0.0226362 -0.0361918 -0.0271868 -0.0226246 -0.036188 100.892 -18.2063 -85.3347 7.45495 44.517 -25.9932 -6.01671 0.33375 -3.5192 -5.37983 -0.320002 -0.0162416 -78.9377 -20.8853 94.4012 10.7053 -41.482 -11.8148 3.44495 42.0239 -6.20839 -1.40156 -0.0554573 -0.229468 1.56663 0.102041 0.262418 -8.36039 0.0623936 -0.0177817 
-1.89693 97.843 -19.5542 -110.337 -89.7409 -110.247 -171.126 2.97279 94.2889 -8.75399 8.60739 0.48015 63.3094 1.85189 0.976841 28.7808 5.85017e-006 9.49327e-006 178.573 1.78155 87.5978 -7.35185 -1.78225 -0.104672 62.6057 -1.39491 -0.71204 28.7808 1.28587e-005 2.52732e-005 -0.00204354 6.34658 -90.0838 14.1808 -0.0222355 -0.0283833 2.50983 -0.0234574 -0.0273786 -20.0253 -0.0126812 -0.0337516 -0.0126748 -0.0126728 -0.0337445 100.87 -18.1349 -85.4044 7.49 44.431 -25.8902 -5.98419 0.333774 -3.45266 -5.37983 -0.320002 -0.0162416 -78.9049 -21.0573 94.4766 10.8549 -41.3896 -11.5716 3.21569 41.4264 -6.14509 -1.6888 -0.0640266 0.0671982 1.50114 0.156628 0.406581 -8.38 0.101591 -0.12203 
-1.93615 97.8285 -19.5379 -134.869 -89.5779 -134.8 -171.056 2.91022 94.3325 -9.09977 8.59418 0.466793 63.4925 1.87414 0.984748 28.7808 5.85017e-006 9.49327e-006 178.651 2.34835 87.6074 -8.99451 -1.72037 -0.103384 63.4045 -1.49183 -0.781261 28.7808 1.28587e-005 2.52732e-005 0.00413617 6.36307 -90.0181 14.1477 1.87774e-005 -0.032586 2.47677 -0.00141488 -0.0325546 -20.0584 0.00980426 -0.0310693 -0.0457356 0.00980767 -0.0310767 100.843 -18.3163 -85.4623 7.33183 44.4944 -25.6973 -5.97447 0.333797 -3.38665 -5.37983 -0.320002 -0.0162416 -78.9528 -21.1873 94.375 10.9767 -41.3471 -11.3678 3.10512 40.9728 -6.14904 -1.81005 -0.0680553 0.208435 1.32366 0.108965 0.450498 -8.40655 0.0487857 -0.17487 
-1.93324 97.8322 -19.5564 -116.553 -89.609 -116.501 -171.115 2.99505 94.2829 -9.0188 8.40763 0.46428 63.4208 1.8508 0.972348 28.7808 5.85017e-006 9.49327e-006 178.625 2.37428 87.5802 -8.74078 -1.84479 -0.108987 63.2474 -1.44546 -0.751708 28.7808 1.28587e-005 2.52732e-005 0.0213328 6.33669 -90.0288 14.2005 0.0342823 -0.0264839 2.52956 0.0330952 -0.0279696 -20.0056 0.0406551 -0.0149524 0.00704332 0.0406571 -0.0149578 100.838 -18.3749 -85.4772 7.2477 44.508 -25.4841 -5.98571 0.333806 -3.35955 -5.37983 -0.320002 -0.0162416 -78.955 -21.3047 94.3705 10.7804 -41.3737 -11.5005 3.37363 41.4007 -6.31301 -1.97717 -0.0739708 0.42396 1.09374 0.0945818 0.504105 -8.50469 0.0273413 -0.257261 
-1.95166 97.8304 -19.5541 -111.563 -89.659 -111.484 -171.109 2.99241 94.3137 -8.88493 8.48691 0.47497 63.3883 1.78084 0.934242 28.7808 5.85017e-006 9.49327e-006 178.605 2.05084 87.6084 -7.98019 -1.93879 -0.113939 62.9388 -1.48474 -0.76991 28.7808 1.28587e-005 2.52732e-005 0.02345 6.33119 -90.047 14.2117 0.0375645 -0.0158685 2.54078 0.0368246 -0.0175099 -19.9944 0.0405876 -0.00384834 0.0182654 0.0405934 -0.00384992 100.83 -18.4808 -85.4984 7.20076 44.5007 -25.3814 -6.00851 0.333807 -3.35823 -5.37983 -0.320002 -0.0162416 -78.9645 -21.3083 94.3429 10.7005 -41.3018 -11.4798 3.28625 41.2143 -6.29134 -1.81593 -0.0667863 0.513948 1.08117 0.0933687 0.447796 -8.68091 0.0295203 -0.219453 
-1.97499 97.8267 -19.5522 -128.665 -89.6425 -128.619 -171.107 2.98197 94.2947 -9.07372 8.49528 0.498503 63.4529 1.80583 0.945089 28.7808 5.85017e-006 9.49327e-006 178.637 2.35897 87.5863 -8.85334 -1.87712 -0.111877 63.3572 -1.46846 -0.76657 28.7808 1.28587e-005 2.52732e-005 0.0152653 6.33671 -90.0087 14.2076 0.0273662 -0.0133771 2.53665 0.0267513 -0.0145706 -19.9985 0.0301192 -0.00453025 0.014142 0.0301105 -0.00453862 100.805 -18.5752 -85.5669 7.19749 44.5169 -25.3916 -5.99643 0.333796 -3.38898 -5.37983 -0.320002 -0.0162416 -78.9941 -21.4361 94.2747 10.7714 -41.2776 -11.3848 3.17504 41.1139 -6.26144 -1.65692 -0.0583282 0.78533 0.822942 0.135498 0.459481 -8.60414 0.0631857 -0.170237 
